<?xml version="1.0" encoding="utf-8"?>
<!-- Generator: Adobe Illustrator 24.0.0, SVG Export Plug-In . SVG Version: 6.00 Build 0)  -->
<svg version="1.1" id="Layer_1" xmlns="http://www.w3.org/2000/svg" xmlns:xlink="http://www.w3.org/1999/xlink" x="0px" y="0px"
	 viewBox="0 0 180 180" style="enable-background:new 0 0 180 180;" xml:space="preserve">
<style type="text/css">
	.st0{fill:#F25C05;}
</style>
<g>
	<path class="st0" d="M85.57,61.26c20.99,0,41.28,0,62.3,0c0,21.09,0,41.68,0,63.01c-7.32,0-14.47,0-22.18,0
		c-0.35-5.84-0.68-11.27-1.13-18.6c-17.08,16.63-36.14,22.2-57.89,17.21c-13.59-3.12-24.4-10.56-32.31-22.1
		C18.41,77.51,23.38,43.9,45.34,26.51c23.68-18.76,57.27-16.03,78.32,7.37c-6.55,4.65-12.99,9.22-19.26,13.67
		c-22.92-12.62-39.46-10.69-48.68,5.39c-8.83,15.39-3.69,35.61,11.11,43.74c14.04,7.72,31.27,2.81,39.66-12.43
		c-7.06-0.36-13.51-0.69-20.9-1.06C85.57,76.07,85.57,69.29,85.57,61.26z"/>
</g>
<g>
	<g>
		<path class="st0" d="M180,128.48c-19.03,24.03-44.02,37.77-74.23,40.81c-39.75,4-73.58-8.98-101.01-38.19
			c-6.46-6.88-6.65-14.56-0.74-19.77c5.71-5.03,13.79-3.54,19.31,3.81c22.04,29.36,51.45,43.77,88.04,42.44
			c22.4-0.82,42.73-8.37,60.39-22.51C174.51,132.88,177.26,130.68,180,128.48z"/>
	</g>
</g>
</svg>
