<?xml version="1.0" encoding="utf-8"?>
<!-- Generator: Adobe Illustrator 24.0.0, SVG Export Plug-In . SVG Version: 6.00 Build 0)  -->
<svg version="1.1" id="Layer_1" xmlns="http://www.w3.org/2000/svg" xmlns:xlink="http://www.w3.org/1999/xlink" x="0px" y="0px"
	 viewBox="0 0 180 180" style="enable-background:new 0 0 180 180;" xml:space="preserve">
<style type="text/css">
	.st0{fill:#F25C05;}
</style>
<g>
	<path class="st0" d="M86.62,60.74c20.76,0,40.83,0,61.61,0c0,20.86,0,41.22,0,62.32c-7.24,0-14.31,0-21.94,0
		c-0.35-5.77-0.68-11.14-1.12-18.39c-16.89,16.44-35.74,21.95-57.25,17.02c-13.44-3.08-24.13-10.45-31.95-21.86
		C20.2,76.81,25.12,43.58,46.83,26.37c23.42-18.55,56.64-15.85,77.45,7.29c-6.48,4.6-12.85,9.12-19.05,13.52
		C82.56,34.7,66.2,36.62,57.09,52.51c-8.73,15.22-3.65,35.22,10.98,43.26c13.89,7.63,30.92,2.78,39.22-12.29
		c-6.98-0.35-13.36-0.68-20.67-1.05C86.62,75.38,86.62,68.68,86.62,60.74z"/>
</g>
<g>
	<g>
		<path class="st0" d="M180,127.21c-18.82,23.77-43.54,37.35-73.41,40.36c-39.31,3.96-72.77-8.88-99.89-37.76
			c-6.39-6.8-6.58-14.4-0.73-19.55c5.65-4.97,13.63-3.5,19.09,3.77c21.79,29.03,50.88,43.29,87.07,41.97
			c22.15-0.81,42.26-8.28,59.72-22.26C174.57,131.56,177.29,129.39,180,127.21z"/>
	</g>
</g>
</svg>
