<?xml version="1.0" encoding="utf-8"?>
<!-- Generator: Adobe Illustrator 24.0.0, SVG Export Plug-In . SVG Version: 6.00 Build 0)  -->
<svg version="1.1" id="Layer_1" xmlns="http://www.w3.org/2000/svg" xmlns:xlink="http://www.w3.org/1999/xlink" x="0px" y="0px"
	 viewBox="0 0 80 80" style="enable-background:new 0 0 80 80;" xml:space="preserve">
<style type="text/css">
	.st0{fill:#F25C05;}
</style>
<g>
	<g>
		<path class="st0" d="M38.09,25.56c9.32,0,18.32,0,27.65,0c0,9.36,0,18.5,0,27.97c-3.25,0-6.42,0-9.84,0c-0.16-2.59-0.3-5-0.5-8.25
			c-7.58,7.38-16.04,9.85-25.69,7.64c-6.03-1.38-10.83-4.69-14.34-9.81c-7.08-10.33-4.87-25.25,4.87-32.97
			c10.51-8.33,25.42-7.12,34.76,3.27c-2.91,2.06-5.77,4.09-8.55,6.07c-10.17-5.6-17.51-4.74-21.61,2.39
			c-3.92,6.83-1.64,15.8,4.93,19.41c6.23,3.43,13.88,1.25,17.6-5.52c-3.13-0.16-6-0.3-9.28-0.47
			C38.09,32.13,38.09,29.13,38.09,25.56z"/>
	</g>
	<g>
		<g>
			<path class="st0" d="M80,55.39c-8.45,10.67-19.54,16.76-32.94,18.11C29.42,75.28,14.4,69.52,2.23,56.56
				c-2.87-3.05-2.95-6.46-0.33-8.77c2.54-2.23,6.12-1.57,8.57,1.69C20.25,62.51,33.3,68.9,49.54,68.31
				c9.94-0.36,18.97-3.71,26.8-9.99C77.56,57.35,78.78,56.37,80,55.39z"/>
		</g>
	</g>
</g>
</svg>
