<?xml version="1.0" encoding="utf-8"?>
<!-- Generator: Adobe Illustrator 24.0.0, SVG Export Plug-In . SVG Version: 6.00 Build 0)  -->
<svg version="1.1" id="Layer_1" xmlns="http://www.w3.org/2000/svg" xmlns:xlink="http://www.w3.org/1999/xlink" x="0px" y="0px"
	 viewBox="0 0 738 106" style="enable-background:new 0 0 738 106;" xml:space="preserve">
<style type="text/css">
	.st0{fill:#F25C05;}
</style>
<g>
	<path d="M182.96,73.88c-21.95,0-37.7-16.36-37.7-36.58v-0.2c0-20.22,15.95-36.78,37.9-36.78s37.7,16.36,37.7,36.58v0.2
		C220.86,57.32,204.91,73.88,182.96,73.88z M204.5,37.1c0-12.19-8.94-22.35-21.54-22.35c-12.6,0-21.34,9.96-21.34,22.15v0.2
		c0,12.19,8.94,22.35,21.54,22.35S204.5,49.5,204.5,37.3V37.1z"/>
	<path d="M284.67,72.66l-34.44-45.22v45.22h-15.44V1.54h14.43l33.33,43.79V1.54h15.45v71.13H284.67z"/>
	<path d="M315.05,72.66V1.54h15.65v56.9h35.46v14.23H315.05z"/>
	<path d="M378.65,72.66V1.54h15.65v71.13H378.65z"/>
	<path d="M461.97,72.66l-34.45-45.22v45.22h-15.44V1.54h14.43l33.33,43.79V1.54h15.44v71.13H461.97z"/>
	<path d="M492.35,72.66V1.54H546v13.92h-38.1v14.43h33.53v13.92h-33.53v14.94h38.61v13.92H492.35z"/>
	<path d="M625.15,73.88c-22.15,0-37.39-15.55-37.39-36.58v-0.2c0-20.22,15.75-36.78,37.29-36.78c12.8,0,20.52,3.45,27.94,9.75
		l-9.86,11.89c-5.49-4.57-10.36-7.21-18.59-7.21c-11.38,0-20.42,10.06-20.42,22.15v0.2c0,13.01,8.94,22.56,21.54,22.56
		c5.69,0,10.77-1.42,14.73-4.27V45.23h-15.75V31.72h30.89V62.6C648.21,68.8,638.15,73.88,625.15,73.88z"/>
	<path d="M700.11,73.88c-21.95,0-37.7-16.36-37.7-36.58v-0.2c0-20.22,15.95-36.78,37.9-36.78s37.7,16.36,37.7,36.58v0.2
		C738.01,57.32,722.06,73.88,700.11,73.88z M721.65,37.1c0-12.19-8.94-22.35-21.54-22.35s-21.34,9.96-21.34,22.15v0.2
		c0,12.19,8.94,22.35,21.54,22.35s21.34-9.96,21.34-22.15V37.1z"/>
</g>
<g>
	<path class="st0" d="M59.1,32c14.37,0,28.26,0,42.65,0c0,14.44,0,28.54,0,43.14c-5.01,0-9.91,0-15.19,0
		c-0.24-4-0.47-7.71-0.77-12.73c-11.69,11.38-24.74,15.2-39.63,11.79c-9.3-2.13-16.71-7.23-22.12-15.13
		c-10.92-15.94-7.51-38.94,7.52-50.85C47.77-4.64,70.77-2.77,85.18,13.26c-4.49,3.18-8.89,6.31-13.19,9.36
		c-15.69-8.64-27.02-7.32-33.33,3.69c-6.04,10.54-2.53,24.38,7.6,29.95c9.61,5.28,21.41,1.93,27.15-8.51
		c-4.83-0.25-9.25-0.47-14.31-0.73C59.1,42.14,59.1,37.5,59.1,32z"/>
</g>
<g>
	<g>
		<path class="st0" d="M123.75,78.02c-13.03,16.45-30.14,25.86-50.82,27.94c-27.21,2.74-50.38-6.15-69.15-26.14
			c-4.42-4.71-4.55-9.97-0.5-13.53c3.91-3.44,9.44-2.43,13.22,2.61c15.09,20.1,35.23,29.97,60.28,29.05
			c15.34-0.56,29.26-5.73,41.35-15.41C120,81.03,121.87,79.52,123.75,78.02z"/>
	</g>
</g>
<g>
	<g>
		<path class="st0" d="M693.75,78.02c-13.03,16.45-30.14,25.86-50.82,27.94c-27.21,2.74-50.38-6.15-69.15-26.14
			c-4.42-4.71-4.55-9.97-0.5-13.53c3.91-3.44,9.44-2.43,13.22,2.61c15.09,20.1,35.23,29.97,60.28,29.05
			c15.34-0.56,29.26-5.73,41.35-15.41C689.99,81.03,691.87,79.52,693.75,78.02z"/>
	</g>
</g>
</svg>
